<mxfile host="Electron" modified="2024-02-06T13:45:24.548Z" agent="Mozilla/5.0 (X11; Linux x86_64) AppleWebKit/537.36 (KHTML, like Gecko) draw.io/23.0.2 Chrome/120.0.6099.109 Electron/28.2.0 Safari/537.36" etag="rhLmurDGQKgQ3SXrcdRB" version="23.0.2" type="device">
  <diagram id="XcJZ0W03TQX2NoV_ZfGi" name="Page-1">
    <mxGraphModel dx="932" dy="545" grid="1" gridSize="10" guides="1" tooltips="1" connect="1" arrows="1" fold="1" page="0" pageScale="1" pageWidth="850" pageHeight="1100" math="0" shadow="0">
      <root>
        <mxCell id="0" />
        <mxCell id="1" parent="0" />
        <mxCell id="88ws-bJnouL_pgpodnrm-28" value="&lt;div&gt;Runtime&lt;/div&gt;" style="rounded=1;whiteSpace=wrap;html=1;align=center;verticalAlign=top;arcSize=5;" parent="1" vertex="1">
          <mxGeometry x="20" y="40" width="530" height="310" as="geometry" />
        </mxCell>
        <mxCell id="W6htOilXqDYfo_NaCT0V-1" value="&lt;div&gt;control&lt;/div&gt;" style="rounded=0;whiteSpace=wrap;html=1;verticalAlign=top;fillColor=#f5f5f5;fontColor=#333333;strokeColor=#666666;" parent="1" vertex="1">
          <mxGeometry x="40" y="120" width="90" height="170" as="geometry" />
        </mxCell>
        <mxCell id="W6htOilXqDYfo_NaCT0V-2" value="HardwareInterface" style="rounded=1;whiteSpace=wrap;html=1;verticalAlign=middle;fillColor=#f5f5f5;fontColor=#333333;strokeColor=#666666;" parent="1" vertex="1">
          <mxGeometry x="30" y="70" width="510" height="40" as="geometry" />
        </mxCell>
        <mxCell id="W6htOilXqDYfo_NaCT0V-3" value="&lt;div&gt;audio&lt;/div&gt;" style="rounded=0;whiteSpace=wrap;html=1;verticalAlign=top;fillColor=#f5f5f5;fontColor=#333333;strokeColor=#666666;" parent="1" vertex="1">
          <mxGeometry x="140" y="120" width="90" height="170" as="geometry" />
        </mxCell>
        <mxCell id="W6htOilXqDYfo_NaCT0V-4" value="spl_network" style="rounded=0;whiteSpace=wrap;html=1;verticalAlign=top;fillColor=#f5f5f5;fontColor=#333333;strokeColor=#666666;" parent="1" vertex="1">
          <mxGeometry x="240" y="120" width="90" height="170" as="geometry" />
        </mxCell>
        <mxCell id="W6htOilXqDYfo_NaCT0V-5" value="&lt;div&gt;vision_top&lt;/div&gt;" style="rounded=0;whiteSpace=wrap;html=1;verticalAlign=top;fillColor=#f5f5f5;fontColor=#333333;strokeColor=#666666;" parent="1" vertex="1">
          <mxGeometry x="340" y="120" width="90" height="170" as="geometry" />
        </mxCell>
        <mxCell id="W6htOilXqDYfo_NaCT0V-6" value="vision_bottom" style="rounded=0;whiteSpace=wrap;html=1;verticalAlign=top;fillColor=#f5f5f5;fontColor=#333333;strokeColor=#666666;" parent="1" vertex="1">
          <mxGeometry x="440" y="120" width="90" height="170" as="geometry" />
        </mxCell>
        <mxCell id="W6htOilXqDYfo_NaCT0V-130" value="Communication" style="rounded=1;whiteSpace=wrap;html=1;verticalAlign=middle;fillColor=#f5f5f5;fontColor=#333333;strokeColor=#666666;" parent="1" vertex="1">
          <mxGeometry x="30" y="300" width="510" height="40" as="geometry" />
        </mxCell>
        <mxCell id="88ws-bJnouL_pgpodnrm-2" value="Node" style="rounded=0;whiteSpace=wrap;html=1;" parent="1" vertex="1">
          <mxGeometry x="50" y="150" width="70" height="20" as="geometry" />
        </mxCell>
        <mxCell id="88ws-bJnouL_pgpodnrm-3" value="Node" style="rounded=0;whiteSpace=wrap;html=1;" parent="1" vertex="1">
          <mxGeometry x="50" y="180" width="70" height="20" as="geometry" />
        </mxCell>
        <mxCell id="88ws-bJnouL_pgpodnrm-4" value="Node" style="rounded=0;whiteSpace=wrap;html=1;" parent="1" vertex="1">
          <mxGeometry x="50" y="210" width="70" height="20" as="geometry" />
        </mxCell>
        <mxCell id="88ws-bJnouL_pgpodnrm-5" value="..." style="text;html=1;strokeColor=none;fillColor=none;align=center;verticalAlign=middle;whiteSpace=wrap;rounded=0;" parent="1" vertex="1">
          <mxGeometry x="55" y="257" width="60" height="30" as="geometry" />
        </mxCell>
        <mxCell id="88ws-bJnouL_pgpodnrm-6" value="Node" style="rounded=0;whiteSpace=wrap;html=1;" parent="1" vertex="1">
          <mxGeometry x="50" y="240" width="70" height="20" as="geometry" />
        </mxCell>
        <mxCell id="88ws-bJnouL_pgpodnrm-7" value="Node" style="rounded=0;whiteSpace=wrap;html=1;" parent="1" vertex="1">
          <mxGeometry x="150" y="151.5" width="70" height="20" as="geometry" />
        </mxCell>
        <mxCell id="88ws-bJnouL_pgpodnrm-8" value="Node" style="rounded=0;whiteSpace=wrap;html=1;" parent="1" vertex="1">
          <mxGeometry x="150" y="181.5" width="70" height="20" as="geometry" />
        </mxCell>
        <mxCell id="88ws-bJnouL_pgpodnrm-9" value="Node" style="rounded=0;whiteSpace=wrap;html=1;" parent="1" vertex="1">
          <mxGeometry x="150" y="211.5" width="70" height="20" as="geometry" />
        </mxCell>
        <mxCell id="88ws-bJnouL_pgpodnrm-10" value="..." style="text;html=1;strokeColor=none;fillColor=none;align=center;verticalAlign=middle;whiteSpace=wrap;rounded=0;" parent="1" vertex="1">
          <mxGeometry x="155" y="258.5" width="60" height="30" as="geometry" />
        </mxCell>
        <mxCell id="88ws-bJnouL_pgpodnrm-11" value="Node" style="rounded=0;whiteSpace=wrap;html=1;" parent="1" vertex="1">
          <mxGeometry x="150" y="241.5" width="70" height="20" as="geometry" />
        </mxCell>
        <mxCell id="88ws-bJnouL_pgpodnrm-12" value="Node" style="rounded=0;whiteSpace=wrap;html=1;" parent="1" vertex="1">
          <mxGeometry x="250" y="151.5" width="70" height="20" as="geometry" />
        </mxCell>
        <mxCell id="88ws-bJnouL_pgpodnrm-13" value="Node" style="rounded=0;whiteSpace=wrap;html=1;" parent="1" vertex="1">
          <mxGeometry x="250" y="181.5" width="70" height="20" as="geometry" />
        </mxCell>
        <mxCell id="88ws-bJnouL_pgpodnrm-14" value="Node" style="rounded=0;whiteSpace=wrap;html=1;" parent="1" vertex="1">
          <mxGeometry x="250" y="211.5" width="70" height="20" as="geometry" />
        </mxCell>
        <mxCell id="88ws-bJnouL_pgpodnrm-15" value="..." style="text;html=1;strokeColor=none;fillColor=none;align=center;verticalAlign=middle;whiteSpace=wrap;rounded=0;" parent="1" vertex="1">
          <mxGeometry x="255" y="258.5" width="60" height="30" as="geometry" />
        </mxCell>
        <mxCell id="88ws-bJnouL_pgpodnrm-16" value="Node" style="rounded=0;whiteSpace=wrap;html=1;" parent="1" vertex="1">
          <mxGeometry x="250" y="241.5" width="70" height="20" as="geometry" />
        </mxCell>
        <mxCell id="88ws-bJnouL_pgpodnrm-17" value="Node" style="rounded=0;whiteSpace=wrap;html=1;" parent="1" vertex="1">
          <mxGeometry x="350" y="151.5" width="70" height="20" as="geometry" />
        </mxCell>
        <mxCell id="88ws-bJnouL_pgpodnrm-18" value="Node" style="rounded=0;whiteSpace=wrap;html=1;" parent="1" vertex="1">
          <mxGeometry x="350" y="181.5" width="70" height="20" as="geometry" />
        </mxCell>
        <mxCell id="88ws-bJnouL_pgpodnrm-19" value="Node" style="rounded=0;whiteSpace=wrap;html=1;" parent="1" vertex="1">
          <mxGeometry x="350" y="211.5" width="70" height="20" as="geometry" />
        </mxCell>
        <mxCell id="88ws-bJnouL_pgpodnrm-20" value="..." style="text;html=1;strokeColor=none;fillColor=none;align=center;verticalAlign=middle;whiteSpace=wrap;rounded=0;" parent="1" vertex="1">
          <mxGeometry x="355" y="258.5" width="60" height="30" as="geometry" />
        </mxCell>
        <mxCell id="88ws-bJnouL_pgpodnrm-21" value="Node" style="rounded=0;whiteSpace=wrap;html=1;" parent="1" vertex="1">
          <mxGeometry x="350" y="241.5" width="70" height="20" as="geometry" />
        </mxCell>
        <mxCell id="88ws-bJnouL_pgpodnrm-22" value="Node" style="rounded=0;whiteSpace=wrap;html=1;" parent="1" vertex="1">
          <mxGeometry x="450" y="151.5" width="70" height="20" as="geometry" />
        </mxCell>
        <mxCell id="88ws-bJnouL_pgpodnrm-23" value="Node" style="rounded=0;whiteSpace=wrap;html=1;" parent="1" vertex="1">
          <mxGeometry x="450" y="181.5" width="70" height="20" as="geometry" />
        </mxCell>
        <mxCell id="88ws-bJnouL_pgpodnrm-24" value="Node" style="rounded=0;whiteSpace=wrap;html=1;" parent="1" vertex="1">
          <mxGeometry x="450" y="211.5" width="70" height="20" as="geometry" />
        </mxCell>
        <mxCell id="88ws-bJnouL_pgpodnrm-25" value="..." style="text;html=1;strokeColor=none;fillColor=none;align=center;verticalAlign=middle;whiteSpace=wrap;rounded=0;" parent="1" vertex="1">
          <mxGeometry x="455" y="258.5" width="60" height="30" as="geometry" />
        </mxCell>
        <mxCell id="88ws-bJnouL_pgpodnrm-26" value="Node" style="rounded=0;whiteSpace=wrap;html=1;" parent="1" vertex="1">
          <mxGeometry x="450" y="241.5" width="70" height="20" as="geometry" />
        </mxCell>
      </root>
    </mxGraphModel>
  </diagram>
</mxfile>
